<svg width="1432" height="626" xmlns="http://www.w3.org/2000/svg"><g><path d="M-107,-48L-119,110L34,117Z" fill="#fdfbfd" stroke="#fdfbfd"/><path d="M-107,-48L34,117L24,-99Z" fill="#faf9fc" stroke="#faf9fc"/><path d="M24,-99L34,117L230,-27Z" fill="#f3f3f8" stroke="#f3f3f8"/><path d="M24,-99L230,-27L574,-120Z" fill="#e8e8f3" stroke="#e8e8f3"/><path d="M230,-27L34,117L258,128Z" fill="#efeef6" stroke="#efeef6"/><path d="M230,-27L258,128L358,125Z" fill="#e7e7f2" stroke="#e7e7f2"/><path d="M230,-27L358,125L421,-36Z" fill="#e3e3f0" stroke="#e3e3f0"/><path d="M230,-27L421,-36L574,-120Z" fill="#dedeee" stroke="#dedeee"/><path d="M421,-36L358,125L553,21Z" fill="#dbdbec" stroke="#dbdbec"/><path d="M421,-36L553,21L574,-120Z" fill="#d6d5e9" stroke="#d6d5e9"/><path d="M574,-120L553,21L626,-104Z" fill="#d1cfe5" stroke="#d1cfe5"/><path d="M574,-120L626,-104L943,-112Z" fill="#c7c6e0" stroke="#c7c6e0"/><path d="M574,-120L943,-112L1082,-115Z" fill="#bdb9da" stroke="#bdb9da"/><path d="M626,-104L553,21L713,31Z" fill="#cecce3" stroke="#cecce3"/><path d="M626,-104L713,31L801,-71Z" fill="#c7c6e0" stroke="#c7c6e0"/><path d="M626,-104L801,-71L943,-112Z" fill="#c2c0de" stroke="#c2c0de"/><path d="M801,-71L713,31L793,35Z" fill="#c3c2de" stroke="#c3c2de"/><path d="M801,-71L793,35L943,-112Z" fill="#bebbdb" stroke="#bebbdb"/><path d="M943,-112L793,35L1019,92Z" fill="#bab3d7" stroke="#bab3d7"/><path d="M943,-112L1019,92L1112,23Z" fill="#b5a8d1" stroke="#b5a8d1"/><path d="M943,-112L1112,23L1082,-115Z" fill="#b3a5d0" stroke="#b3a5d0"/><path d="M1082,-115L1112,23L1334,-92Z" fill="#a991c6" stroke="#a991c6"/><path d="M1082,-115L1334,-92L1418,-104Z" fill="#a182bf" stroke="#a182bf"/><path d="M1082,-115L1418,-104L1547,-103Z" fill="#9b80ba" stroke="#9b80ba"/><path d="M1334,-92L1112,23L1279,65Z" fill="#a488c2" stroke="#a488c2"/><path d="M1334,-92L1279,65L1409,23Z" fill="#9c80bb" stroke="#9c80bb"/><path d="M1334,-92L1409,23L1418,-104Z" fill="#9880b7" stroke="#9880b7"/><path d="M1418,-104L1409,23L1547,-103Z" fill="#9380b2" stroke="#9380b2"/><path d="M1547,-103L1409,23L1564,117Z" fill="#8f80af" stroke="#8f80af"/><path d="M1547,-103L1564,117L1628,195Z" fill="#8980aa" stroke="#8980aa"/><path d="M-119,110L-123,501L-120,210Z" fill="#dddaf6" stroke="#dddaf6"/><path d="M-119,110L-120,210L16,176Z" fill="#f0effd" stroke="#f0effd"/><path d="M-119,110L16,176L34,117Z" fill="#f2f1fc" stroke="#f2f1fc"/><path d="M34,117L16,176L195,191Z" fill="#e7e7f9" stroke="#e7e7f9"/><path d="M34,117L195,191L258,128Z" fill="#e6e6f6" stroke="#e6e6f6"/><path d="M258,128L195,191L317,217Z" fill="#d9daf3" stroke="#d9daf3"/><path d="M258,128L317,217L358,125Z" fill="#d9daf1" stroke="#d9daf1"/><path d="M358,125L317,217L508,170Z" fill="#d1d2ee" stroke="#d1d2ee"/><path d="M358,125L508,170L553,21Z" fill="#d6d6eb" stroke="#d6d6eb"/><path d="M553,21L508,170L694,208Z" fill="#c9c8e5" stroke="#c9c8e5"/><path d="M553,21L694,208L713,31Z" fill="#cccae2" stroke="#cccae2"/><path d="M713,31L694,208L793,35Z" fill="#c5c4e0" stroke="#c5c4e0"/><path d="M793,35L694,208L841,254Z" fill="#b6b4de" stroke="#b6b4de"/><path d="M793,35L841,254L942,174Z" fill="#b3afda" stroke="#b3afda"/><path d="M793,35L942,174L1019,92Z" fill="#b8b2d7" stroke="#b8b2d7"/><path d="M1019,92L942,174L1152,219Z" fill="#a79ad0" stroke="#a79ad0"/><path d="M1019,92L1152,219L1112,23Z" fill="#ab9acc" stroke="#ab9acc"/><path d="M1112,23L1152,219L1279,65Z" fill="#a68fc6" stroke="#a68fc6"/><path d="M1279,65L1152,219L1269,240Z" fill="#957ac2" stroke="#957ac2"/><path d="M1279,65L1269,240L1410,187Z" fill="#9173bc" stroke="#9173bc"/><path d="M1279,65L1410,187L1409,23Z" fill="#997fb9" stroke="#997fb9"/><path d="M1409,23L1410,187L1564,117Z" fill="#8f7cb2" stroke="#8f7cb2"/><path d="M1564,117L1410,187L1628,195Z" fill="#7f73ad" stroke="#7f73ad"/><path d="M-120,210L-123,501L-26,348Z" fill="#ccc9ee" stroke="#ccc9ee"/><path d="M-120,210L-26,348L16,176Z" fill="#dfdcf7" stroke="#dfdcf7"/><path d="M16,176L-26,348L97,368Z" fill="#d0cdef" stroke="#d0cdef"/><path d="M16,176L97,368L195,191Z" fill="#d6d4f2" stroke="#d6d4f2"/><path d="M195,191L97,368L197,413Z" fill="#c3c0e9" stroke="#c3c0e9"/><path d="M195,191L197,413L317,217Z" fill="#c8c6ec" stroke="#c8c6ec"/><path d="M317,217L197,413L398,384Z" fill="#b6b5e3" stroke="#b6b5e3"/><path d="M317,217L398,384L508,170Z" fill="#bfbde7" stroke="#bfbde7"/><path d="M508,170L398,384L554,369Z" fill="#afadde" stroke="#afadde"/><path d="M508,170L554,369L694,208Z" fill="#b3b0df" stroke="#b3b0df"/><path d="M694,208L554,369L693,318Z" fill="#a5a1d8" stroke="#a5a1d8"/><path d="M694,208L693,318L841,254Z" fill="#a5a2d8" stroke="#a5a2d8"/><path d="M841,254L693,318L866,413Z" fill="#9490d0" stroke="#9490d0"/><path d="M841,254L866,413L1023,373Z" fill="#8981c8" stroke="#8981c8"/><path d="M841,254L1023,373L942,174Z" fill="#988fce" stroke="#988fce"/><path d="M942,174L1023,373L1152,219Z" fill="#9485c9" stroke="#9485c9"/><path d="M1152,219L1023,373L1091,384Z" fill="#8370bf" stroke="#8370bf"/><path d="M1152,219L1091,384L1257,386Z" fill="#7c63b9" stroke="#7c63b9"/><path d="M1152,219L1257,386L1269,240Z" fill="#8164b9" stroke="#8164b9"/><path d="M1269,240L1257,386L1445,376Z" fill="#6f4fae" stroke="#6f4fae"/><path d="M1269,240L1445,376L1410,187Z" fill="#785cb0" stroke="#785cb0"/><path d="M1410,187L1445,376L1572,340Z" fill="#6956a6" stroke="#6956a6"/><path d="M1410,187L1572,340L1628,195Z" fill="#7163a7" stroke="#7163a7"/><path d="M1628,195L1572,340L1602,637Z" fill="#4f4193" stroke="#4f4193"/><path d="M-26,348L-123,501L64,494Z" fill="#baaade" stroke="#baaade"/><path d="M-26,348L64,494L97,368Z" fill="#bcb3e2" stroke="#bcb3e2"/><path d="M97,368L64,494L197,413Z" fill="#b4a8dd" stroke="#b4a8dd"/><path d="M197,413L64,494L254,543Z" fill="#a793d1" stroke="#a793d1"/><path d="M197,413L254,543L398,384Z" fill="#a698d4" stroke="#a698d4"/><path d="M398,384L254,543L400,544Z" fill="#9984c9" stroke="#9984c9"/><path d="M398,384L400,544L561,537Z" fill="#917dc5" stroke="#917dc5"/><path d="M398,384L561,537L554,369Z" fill="#998ccd" stroke="#998ccd"/><path d="M554,369L561,537L678,488Z" fill="#8c79c3" stroke="#8c79c3"/><path d="M554,369L678,488L693,318Z" fill="#948ccd" stroke="#948ccd"/><path d="M693,318L678,488L866,413Z" fill="#8b80c7" stroke="#8b80c7"/><path d="M866,413L678,488L867,482Z" fill="#7d6bbc" stroke="#7d6bbc"/><path d="M866,413L867,482L917,497Z" fill="#7862b8" stroke="#7862b8"/><path d="M866,413L917,497L1023,373Z" fill="#7c68bb" stroke="#7c68bb"/><path d="M1023,373L917,497L1091,384Z" fill="#7963b8" stroke="#7963b8"/><path d="M1091,384L917,497L1155,558Z" fill="#6b49ab" stroke="#6b49ab"/><path d="M1091,384L1155,558L1222,512Z" fill="#6238a2" stroke="#6238a2"/><path d="M1091,384L1222,512L1257,386Z" fill="#6a46aa" stroke="#6a46aa"/><path d="M1257,386L1222,512L1411,524Z" fill="#59279a" stroke="#59279a"/><path d="M1257,386L1411,524L1445,376Z" fill="#5c369d" stroke="#5c369d"/><path d="M1445,376L1411,524L1567,534Z" fill="#4a268d" stroke="#4a268d"/><path d="M1445,376L1567,534L1572,340Z" fill="#513994" stroke="#513994"/><path d="M1572,340L1567,534L1602,637Z" fill="#3d1d81" stroke="#3d1d81"/><path d="M-123,501L-97,659L64,494Z" fill="#a588ca" stroke="#a588ca"/><path d="M64,494L-97,659L77,651Z" fill="#9677bf" stroke="#9677bf"/><path d="M64,494L77,651L254,543Z" fill="#987ac3" stroke="#987ac3"/><path d="M254,543L77,651L255,634Z" fill="#8a6eb8" stroke="#8a6eb8"/><path d="M254,543L255,634L400,544Z" fill="#8a6bbb" stroke="#8a6bbb"/><path d="M400,544L255,634L353,714Z" fill="#7c64af" stroke="#7c64af"/><path d="M400,544L353,714L579,696Z" fill="#6f5ca7" stroke="#6f5ca7"/><path d="M400,544L579,696L561,537Z" fill="#7756af" stroke="#7756af"/><path d="M561,537L579,696L658,659Z" fill="#684ea3" stroke="#684ea3"/><path d="M561,537L658,659L678,488Z" fill="#7455af" stroke="#7455af"/><path d="M678,488L658,659L867,482Z" fill="#7154af" stroke="#7154af"/><path d="M867,482L658,659L865,730Z" fill="#5b409d" stroke="#5b409d"/><path d="M867,482L865,730L959,675Z" fill="#553697" stroke="#553697"/><path d="M867,482L959,675L917,497Z" fill="#6441a5" stroke="#6441a5"/><path d="M917,497L959,675L1087,648Z" fill="#542d96" stroke="#542d96"/><path d="M917,497L1087,648L1155,558Z" fill="#582b9a" stroke="#582b9a"/><path d="M1155,558L1087,648L1304,624Z" fill="#451188" stroke="#451188"/><path d="M1155,558L1304,624L1222,512Z" fill="#4b128e" stroke="#4b128e"/><path d="M1222,512L1304,624L1411,524Z" fill="#470c8a" stroke="#470c8a"/><path d="M1411,524L1304,624L1425,620Z" fill="#3a007e" stroke="#3a007e"/><path d="M1411,524L1425,620L1567,534Z" fill="#390a7e" stroke="#390a7e"/><path d="M1567,534L1425,620L1602,637Z" fill="#2c0072" stroke="#2c0072"/><path d="M-97,659L-61,844L77,651Z" fill="#807aaa" stroke="#807aaa"/><path d="M77,651L-61,844L124,814Z" fill="#77769e" stroke="#77769e"/><path d="M77,651L124,814L257,785Z" fill="#70709f" stroke="#70709f"/><path d="M77,651L257,785L255,634Z" fill="#796ea9" stroke="#796ea9"/><path d="M255,634L257,785L353,714Z" fill="#6e67a2" stroke="#6e67a2"/><path d="M353,714L257,785L322,862Z" fill="#656692" stroke="#656692"/><path d="M353,714L322,862L497,801Z" fill="#60608e" stroke="#60608e"/><path d="M353,714L497,801L579,696Z" fill="#5b5995" stroke="#5b5995"/><path d="M579,696L497,801L732,827Z" fill="#504e87" stroke="#504e87"/><path d="M579,696L732,827L658,659Z" fill="#504a8e" stroke="#504a8e"/><path d="M658,659L732,827L786,781Z" fill="#474587" stroke="#474587"/><path d="M658,659L786,781L865,730Z" fill="#48428b" stroke="#48428b"/><path d="M865,730L786,781L944,831Z" fill="#3e3a7c" stroke="#3e3a7c"/><path d="M865,730L944,831L959,675Z" fill="#3b3480" stroke="#3b3480"/><path d="M959,675L944,831L1155,782Z" fill="#352977" stroke="#352977"/><path d="M959,675L1155,782L1087,648Z" fill="#3b227f" stroke="#3b227f"/><path d="M1087,648L1155,782L1304,624Z" fill="#35117a" stroke="#35117a"/><path d="M1304,624L1155,782L1243,805Z" fill="#26096d" stroke="#26096d"/><path d="M1304,624L1243,805L1385,862Z" fill="#1f0062" stroke="#1f0062"/><path d="M1304,624L1385,862L1425,620Z" fill="#23006a" stroke="#23006a"/><path d="M1425,620L1385,862L1537,851Z" fill="#140056" stroke="#140056"/><path d="M1425,620L1537,851L1602,637Z" fill="#17005f" stroke="#17005f"/><path d="M-61,844L322,862L124,814Z" fill="#72718e" stroke="#72718e"/><path d="M124,814L322,862L257,785Z" fill="#6b6b8f" stroke="#6b6b8f"/><path d="M322,862L1385,862L944,831Z" fill="#3d386e" stroke="#3d386e"/><path d="M322,862L944,831L732,827Z" fill="#4b4a79" stroke="#4b4a79"/><path d="M322,862L732,827L497,801Z" fill="#565681" stroke="#565681"/><path d="M732,827L944,831L786,781Z" fill="#403e79" stroke="#403e79"/><path d="M944,831L1385,862L1243,805Z" fill="#28105d" stroke="#28105d"/><path d="M944,831L1243,805L1155,782Z" fill="#2e1b68" stroke="#2e1b68"/></g></svg>